<?xml version="1.0" ?><svg viewBox="0 0 128 128" xmlns="http://www.w3.org/2000/svg"><defs><style>.cls-1{fill:#66b8e2;}.cls-1,.cls-2{stroke:#0088ce;stroke-miterlimit:10;stroke-width:6px;}.cls-2{fill:none;}</style></defs><title/><g data-name="Layer 5" id="Layer_5"><path class="cls-1" d="M107.32,59.51V86.28a7.7,7.7,0,0,1-7.7,7.7H87.52l.08,12.58L67.38,94H49.28c-4.25,0-8.43-3-8.43-7.29l25-15h24A9.17,9.17,0,0,0,99,62.52V51.81h.6A7.7,7.7,0,0,1,107.32,59.51Z"/><path class="cls-2" d="M99,30.61V62.52a9.17,9.17,0,0,1-9.17,9.17h-24l-25,15v-15h-11a9.18,9.18,0,0,1-9.17-9.17V30.61a9.17,9.17,0,0,1,9.17-9.17h60A9.16,9.16,0,0,1,99,30.61Z"/></g></svg>