<svg id="Layer_1" data-name="Layer 1" xmlns="http://www.w3.org/2000/svg" viewBox="0 0 954.55 650.53"><defs><style>.cls-1{font-size:460.28px;fill:red;}.cls-1,.cls-3,.cls-4,.cls-5,.cls-8{stroke:#fff;stroke-miterlimit:10;stroke-width:5px;}.cls-1,.cls-7{font-family:Quicksand-Bold, Quicksand;font-weight:700;}.cls-2,.cls-7{fill:#fff;}.cls-3,.cls-4{fill:none;}.cls-3,.cls-5{stroke-linecap:round;}.cls-5,.cls-6{fill:#1b1464;}.cls-7{font-size:165.48px;}</style></defs><title>final</title><rect x="6.05" y="134.53" width="736" height="516" rx="12" ry="12"/><text class="cls-1" transform="translate(180.06 480.24) scale(0.78 1)">SL</text><path class="cls-2" d="M690.74,201.86c0,1.72,0,3.43-.12,5.13H462.16c-.09-1.7-.12-3.42-.12-5.13a114.35,114.35,0,0,1,228.7,0Z" transform="translate(-23.45 -75.97)"/><path class="cls-2" d="M365.33,207H107.2a129.07,129.07,0,0,1,258.13,0Z" transform="translate(-23.45 -75.97)"/><line class="cls-3" x1="438.72" y1="131.02" x2="667.17" y2="131.02"/><line class="cls-4" x1="341.88" y1="131.02" x2="438.72" y2="131.02"/><path class="cls-4" d="M690.61,207H753a12,12,0,0,1,12,12V712a12,12,0,0,1-12,12H38a12,12,0,0,1-12-12V219a12,12,0,0,1,12-12H107.2" transform="translate(-23.45 -75.97)"/><path class="cls-3" d="M107.2,207a129.07,129.07,0,0,1,258.13,0" transform="translate(-23.45 -75.97)"/><path class="cls-3" d="M462.16,207c-.09-1.7-.12-3.42-.12-5.13a114.35,114.35,0,0,1,228.7,0c0,1.72,0,3.43-.12,5.13" transform="translate(-23.45 -75.97)"/><rect class="cls-5" x="46.92" y="437.9" width="92.54" height="64.16" transform="translate(-400.23 487.2) rotate(-90)"/><rect class="cls-5" x="46.92" y="330.32" width="92.54" height="64.16" transform="translate(-292.65 379.62) rotate(-90)"/><rect class="cls-5" x="46.92" y="224.27" width="92.54" height="64.16" transform="translate(-186.6 273.57) rotate(-90)"/><rect class="cls-5" x="672.5" y="415.39" width="92.54" height="64.16" transform="translate(247.85 1090.27) rotate(-90)"/><rect class="cls-5" x="672.5" y="308.81" width="92.54" height="64.16" transform="translate(354.44 983.69) rotate(-90)"/><rect class="cls-5" x="682.37" y="213.63" width="72.8" height="64.16" transform="translate(449.62 888.51) rotate(-90)"/><circle class="cls-6" cx="180.18" cy="45.88" r="25.91"/><circle class="cls-6" cx="132.06" cy="91.54" r="25.91"/><circle class="cls-6" cx="246.81" cy="45.88" r="25.91"/><circle class="cls-6" cx="298.63" cy="91.54" r="25.91"/><circle class="cls-6" cx="522.68" cy="52.88" r="23.57"/><circle class="cls-6" cx="478.91" cy="94.41" r="23.57"/><circle class="cls-6" cx="583.28" cy="52.88" r="23.57"/><circle class="cls-6" cx="630.42" cy="94.41" r="23.57"/><circle cx="523.04" cy="54.9" r="11.48"/><circle cx="479.51" cy="94.86" r="11.48"/><circle cx="583.41" cy="52.43" r="11.48"/><circle cx="629.81" cy="94.86" r="11.48"/><ellipse cx="180.45" cy="45.49" rx="13.31" ry="13.18"/><ellipse cx="132.17" cy="90.69" rx="12.23" ry="11.5"/><ellipse cx="247.48" cy="45.49" rx="14.14" ry="13.18"/><circle cx="297.29" cy="90.69" r="11.5"/><text class="cls-7" transform="translate(37.18 612.68) scale(0.98 1)">STUDIOS</text><polygon class="cls-8" points="742.05 267.53 952.05 150.53 952.05 591.53 742.05 496.53 742.05 267.53"/></svg>